/* XPM */
static char *_647372792865[] = {
/* columns rows colors chars-per-pixel */
"32 32 164 2 ",
"   c #096C00",
".  c #147106",
"X  c #18750B",
"o  c #2D8F1E",
"O  c #2C8C20",
"+  c #2D8D22",
"@  c #2D8C24",
"#  c #329322",
"$  c #319125",
"%  c #329226",
"&  c #349625",
"*  c #359527",
"=  c #33922A",
"-  c #3A972D",
";  c #3B9B2D",
":  c #3B982E",
">  c #54B740",
",  c #56B944",
"<  c #5BBE47",
"1  c #5CBD4A",
"2  c #5CBF4A",
"3  c #5BBB4D",
"4  c #5FBC51",
"5  c #5EBE50",
"6  c #60BD53",
"7  c #61BE54",
"8  c #5DC242",
"9  c #5CC044",
"0  c #5DC145",
"q  c #5EC045",
"w  c #5EC244",
"e  c #5FC244",
"r  c #5FC345",
"t  c #5EC246",
"y  c #5FC347",
"u  c #5DC049",
"i  c #5EC248",
"p  c #5FC349",
"a  c #5FC24B",
"s  c #5EC14C",
"d  c #5FC24D",
"f  c #5FC24E",
"g  c #60C247",
"h  c #60C446",
"j  c #60C249",
"k  c #60C448",
"l  c #61C549",
"z  c #63C648",
"x  c #63C749",
"c  c #60C44A",
"v  c #61C54B",
"b  c #63C54A",
"n  c #63C74B",
"m  c #64C749",
"M  c #64C64B",
"N  c #60C34C",
"B  c #61C34C",
"V  c #61C24E",
"C  c #60C34E",
"Z  c #61C24F",
"A  c #61C44D",
"S  c #63C54C",
"D  c #62C64C",
"F  c #62C74D",
"G  c #63C74D",
"H  c #62C54E",
"J  c #63C64F",
"K  c #64C64D",
"L  c #65C74E",
"P  c #64C64F",
"I  c #63C848",
"U  c #62C849",
"Y  c #62C84B",
"T  c #64C84A",
"R  c #65C94B",
"E  c #66C94B",
"W  c #60C84F",
"Q  c #64C84C",
"!  c #65C94D",
"~  c #66C84D",
"^  c #67CA4C",
"/  c #67CB4D",
"(  c #64C84E",
")  c #65C94F",
"_  c #67C94E",
"`  c #66CA4E",
"'  c #68CC4E",
"]  c #60C150",
"[  c #61C251",
"{  c #62C350",
"}  c #62C052",
"|  c #62C352",
" . c #63C450",
".. c #62C550",
"X. c #63C451",
"o. c #62C551",
"O. c #63C651",
"+. c #63C652",
"@. c #64C551",
"#. c #64C750",
"$. c #65C750",
"%. c #64C552",
"&. c #65C652",
"*. c #64C752",
"=. c #65C653",
"-. c #64C753",
";. c #66C753",
":. c #60C054",
">. c #61C155",
",. c #62C254",
"<. c #63C355",
"1. c #63C554",
"2. c #62C455",
"3. c #63C556",
"4. c #65C655",
"5. c #66C754",
"6. c #64C456",
"7. c #67C557",
"8. c #65C851",
"9. c #66C851",
"0. c #66CA50",
"q. c #67CB51",
"w. c #66C952",
"e. c #67C952",
"r. c #67CA53",
"t. c #65C854",
"y. c #66C954",
"u. c #67CA56",
"i. c #69CB50",
"p. c #69CB52",
"a. c #68CA53",
"s. c #69CD51",
"d. c #69CD53",
"f. c #68C955",
"g. c #68CB54",
"h. c #68CB56",
"j. c #69CC55",
"k. c #6BCF55",
"l. c #69CC57",
"z. c #6ACD56",
"x. c #6BCE57",
"c. c #64C35B",
"v. c #64C458",
"b. c #66C658",
"n. c #67C45A",
"m. c #66C65B",
"M. c #68C85A",
"N. c #69C95B",
"B. c #6BC95B",
"V. c #6ACB5A",
"C. c #69CC58",
"Z. c #6ACD58",
"A. c #6BCC59",
"S. c #6CCF5B",
"D. c #69C95D",
"F. c #69CB5C",
"G. c #6BCB5D",
"H. c #6BC85E",
"J. c #6BCB5F",
"K. c #6DCB5D",
"L. c #6FD357",
"P. c #6ED15A",
"I. c #6AC961",
"U. c #6FCC62",
/* pixels */
"O.O.J J J Y n n n n n n n n n n R 8 R 8 Q J J O.J J J J M K M M ",
"O.O.J J Q J n n n n n n n n n n Y R ' ( J n r.p J J J J K K M M ",
"O.O.J J K Y n n n n n Y J Y J Y w n w r.J n d.( Q J Y J Y J Q J ",
"O.O.J J Q J n n n n n Q Q J J J Z.( p r.( p n ( J Q J Y J Y J Q ",
"J J J J J Y J Y J Q d J J O.O.O.2 [ 5.{ #.#.K ( / p f U Y J Y J ",
"J J J J Q J Y J Q Q Q -.O.O.O.O.; <.N.[ N a.K M p U / / J Y J Y ",
"J Q K Q J Y K Q J J O.O.O.O.1.1.O U.4 B.{ ;.M g / y U U / f d f ",
"Y J Y J Y J Q J J O.O.O.1.O.1.3.X 6 - b.{ #.K _ / I U U f / W f ",
"J Y K Q J Y J Q J ( h.2 1.d & 1.H.6 : 7 #.K J ( y I U U p f W W ",
"Y J Q J Y J Y K O.< O.Z.O.C.o F.6 N.. K.5.a.d.w I I U / W / W W ",
"K Y J Y J Q J Y n d.#., O.u.  1.N.[ 5 { #.[ w Q / p / p p / U W ",
"Q J Y J Q K Y J J J N P.O.O.Z.-.[ K.K.#.N #.J Q p / p / W W f / ",
"J Q J Y n n n n Q J d.d p J Z.d d d.> d.n Q J Y J Q J Q / p / f ",
"Y J Q J n n n n p d.p Q r.d Z.p r.h L.p -.Q u Q Y J Q Q f / f / ",
"J Y K Q n n n n ( 8 q.J J r.u J n R j w J d.r.p J J J J Q Q / U ",
"Y J J J J J J J ( ( Q p q.n q.J n R h d.r.p p r.J J J O.J Q Q U ",
"L j u.] <.I.4 b.{ K M M K #.{ #.n n n n Y K Q J Y J Y K Q J Y J ",
"I a.#.1.I.@ m.v.;.K M M K K 5.{ J J n J J Y J Q J Y J Y J Q J Y ",
"I < 5.# m.= m.* { L M I M K { #.J Y J n Y J Q K Y J Q J Y J Y K ",
"^ L 5.] $ @ $ 5.#.K M M M K #.#.J J Y J J Q J Y K Q J Y J Q J Q ",
"h m p.;.J.J.J.[ { K M M M M K K Y J Q J Q J Y J Q J Y J Y K Q J ",
"I M L 7 ] 3 <.O.;.M M I M M K #.K Y K Y J Y J Y J Q K Y J Y J Q ",
"' g M #.O.S.d O.K M M M I M K Y Q J Y J Y K Q J Y J Y J Q K Y J ",
"h M a.S O.d u.K K M I I Y M Y J J Q J Y J Y J Q J Y J Q J Y J Y ",
"n n J J J J J J J Y I n n n n n Y J Q K Y J Y J Y K Q J Y J Y K ",
"n n Q J Y J J Y n Y M n n n n n J Q J Y K Y J Q J Q J Q J Y J Q ",
"J Q n n M Y J Y Y J Q M n n n n Y J Y J Q J Q J Q J Y K Y J Q J ",
"Y K n n Y M Y M J Q J Y n n n n K Y J Y J Q K Y J Y J Y K Y J Y ",
"J Q Y M M h R R J Y J J K Y n n Q J Y J Q J Y J Y J Q J Q J Y J ",
"J J K Y I n n n Y J J J J J n n J Q J Y J Q J Y J Y J Q J Q J Y ",
"J J Y M R h n n Q J O.J J Q n n Y J Y K Y K Y J Y K Y K Y J Y K ",
"J J J n n n n n J J O.O.J J n Y J Q J Q J Y J Q J Q J Y J Q J Q "
};
