/* XPM */
static char *e6a784aad98c4dd5974104fbbe625bbb1FROiQ8dEQ1Kxgro[] = {
/* columns rows colors chars-per-pixel */
"32 32 61 1 ",
"  c None",
". c #353834",
"X c #343934",
"o c #353934",
"O c #353835",
"+ c #343935",
"@ c #353935",
"# c #405A36",
"$ c #415A36",
"% c #405B36",
"& c #405A37",
"* c #464646",
"= c #474646",
"- c #5D5C5D",
"; c #5D5D5D",
": c #5F5F5F",
"> c #7A6842",
", c #7A6942",
"< c #7A6843",
"1 c #7B6843",
"2 c #7A6943",
"3 c DimGray",
"4 c #7D7D7C",
"5 c #7D7C7D",
"6 c gray49",
"7 c #987B30",
"8 c #987B31",
"9 c #997B31",
"0 c #62863C",
"q c #63863C",
"w c #62873C",
"e c #62863D",
"r c #62873D",
"t c #90B840",
"y c #90B940",
"u c #91B940",
"i c #90B941",
"p c #91B941",
"a c #CCAD46",
"s c #CCAC47",
"d c #CCAD47",
"f c #CDAD47",
"g c #CA9E72",
"h c #CA9E73",
"j c #CA9F73",
"k c #E6D86C",
"l c #E7D86C",
"z c #E6D96C",
"x c #E6D86D",
"c c #868686",
"v c #868786",
"b c #DCBD9C",
"n c #DDBD9C",
"m c #EEDAB2",
"M c #EEDAB3",
"N c #EFDAB3",
"B c #EEDBB3",
"V c #FDF0C4",
"C c #FDF0C5",
"Z c #FCF1C5",
"A c #FDF1C5",
/* pixels */
"                                ",
"                                ",
"                                ",
"                                ",
"                                ",
"             <<><<<<            ",
"           <<hhbnnjh<<          ",
"          <hnNNNBNNNnh<         ",
"        8<hnNNZCCCZNNnh<8       ",
"       8d8nNNCCCCCCCNNn8d8      ",
"       dkknNCCCCZCCCANnkkd      ",
"      8dkkkNCCCCCCCZZNkkkd8     ",
"      8dkdkkAACCCCCVAkkdkd8     ",
"      8dddkkkkAACCCkkkkddd8     ",
"      <nddkkkkkkkkkkkkkddn<     ",
"      <n8ddkdkkkkkkkdkdd8n<     ",
"       117dddkdkkkdkddd811      ",
"        1h77ddddddddd78h1       ",
"         X$$8d8ddd7d8$&X        ",
"        X0yy$&00000#$yy0X       ",
"       X0yy0qyyyttuy00yyqX      ",
"       X0yr&X0yyttu0X#0yqX      ",
"       X&ryyyX10t0<Xyyy0$X      ",
"       X$&0yy+M10<BXyy0$$X      ",
"        X$$qqXn1;1nX00$$O       ",
"         XX&$X1q00=X#$XX        ",
"         X$XXqyyyy00XX$X        ",
"         X$0qyyyyyy00&$X        ",
"          X0yyyyy000$#X         ",
"          =;666=X=;;;=          ",
"           =3vv:  ===           ",
"           =vvv:                "
};
