/* XPM */
static char *_9bf90910b3a4aeeb4024f837a9a755cyzuyTk5vkzFukQ5P[] = {
/* columns rows colors chars-per-pixel */
"21 27 71 1 ",
"  c None",
". c #2E1E22",
"X c #2F1E22",
"o c #2E1E23",
"O c #353834",
"+ c #343934",
"@ c #353934",
"# c #353935",
"$ c #534720",
"% c #534621",
"& c #534721",
"* c #405A36",
"= c #415A36",
"- c #405B36",
"; c #405A37",
": c #464646",
"> c #464647",
", c #5D5D5C",
"< c #5D5C5D",
"1 c #5D5D5D",
"2 c #5F5F5F",
"3 c #7A6842",
"4 c #7A6843",
"5 c #7B6843",
"6 c #7A6943",
"7 c DimGray",
"8 c gray49",
"9 c #964F00",
"0 c #987B31",
"q c #997B31",
"w c #62863C",
"e c #63863C",
"r c #62873C",
"t c #62863D",
"y c #90B940",
"u c #91B940",
"i c #90B941",
"p c #CCAD46",
"a c #CCAC47",
"s c #CCAD47",
"d c #CDAD47",
"f c #CA9E72",
"g c #CA9E73",
"h c #CB9E73",
"j c #CA9F73",
"k c #E6D86C",
"l c #E7D86C",
"z c #E6D96C",
"x c #E6D86D",
"c c #868686",
"v c #868687",
"b c gray55",
"n c #8C8C8D",
"m c #928B8C",
"M c #DDBC9C",
"N c #DCBD9C",
"B c #DDBD9C",
"V c #DDBD9D",
"C c #EEDAB2",
"Z c #EEDAB3",
"A c #EFDAB3",
"S c #EEDBB3",
"D c #F6F2A6",
"F c #F7F2A6",
"G c gray85",
"H c #D9D9DD",
"J c #FDF0C4",
"K c #FCF0C5",
"L c #FDF0C5",
"P c #FDF1C5",
"I c white",
/* pixels */
"       4455544       ",
"     44jjBNBhj44     ",
"    4jNNZZZAANNh4    ",
"  04jNZSKKKKJZANg40  ",
" 0s0NZZKKKKKJKZZN0s0 ",
" sllNZZZJAAAJZZZNlls ",
"0slllZKKJKKKKKKAllls0",
"0sllZZKKAAAAAKKAZlls0",
"0slsZZlDzKKJzFlAZsls0",
"4BsBBlDlAKKKAzFlBBsB4",
"4B0BZ%&%AZZAZ%$$ZB0B4",
" 44jSGXHAJKJZHXGZg44 ",
"  4hAIXmKKKKKmXIZg4  ",
"  @4NA99KKKKK99ZB4@  ",
" @=wsNABlFDDlBZBsw-@ ",
"@=wuesslFlllDlsswyw=@",
"@=wu--axsslssls=-yw=@",
"+-;w-wwasDDDssww-w==@",
" @=-OwwyplDlsyww@--@ ",
"  @@O=wwyplpurw=@@O  ",
"   @=<-wwwswww-<;@   ",
"   @=w<<<nnn<<<--@   ",
"   @wywyyywwrr=-=@   ",
"    @wyyyyyyw---@    ",
"    ><888@@@<<<:     ",
"     >7cc2  >>:      ",
"     >ccc2           "
};
