/* XPM */
static char *c93ca24ebc2c45489809205ddb82afffjL7P4ybbMyE7Kmf9[] = {
/* columns rows colors chars-per-pixel */
"15 19 30 1 ",
"  c None",
". c black",
"X c #010000",
"o c #000100",
"O c #000001",
"+ c #1B0904",
"@ c #1B0905",
"# c #3E2210",
"$ c #3F2210",
"% c #3E2310",
"& c #3E2211",
"* c #10162C",
"= c #10142E",
"- c #10162E",
"; c #12162E",
": c #56361E",
"> c #56371E",
", c #57371E",
"< c #56371F",
"1 c #AD7C5C",
"2 c #AC7C5D",
"3 c #AD7C5D",
"4 c #AD7D5D",
"5 c #17418B",
"6 c #2865B6",
"7 c #A5A9B6",
"8 c #C2AC90",
"9 c #C2AD90",
"0 c #C3AD90",
"q c #C2AD91",
/* pixels */
"  OOOO OO      ",
"  O,>&O,OOO    ",
"  OO>>%:#,,O   ",
" O#,>:,:,,,:O  ",
"O#,,,,>><,,<,O ",
"O#,,%,::%%,,,O ",
"O#%%%:::%21%,%O",
"O%,%%,,&2211#%O",
"O%<<4&<1+8q@O%O",
"O%%<41%8@88@Oo ",
" O%%44888088O  ",
"  O444188881O  ",
"   O%111111O   ",
"  O88%%777%1O  ",
"  O88%6666%1O  ",
"  O:566566%O;  ",
" =*O%<OO%,O-== ",
" =;;***;---*== ",
"  ==--*-----=  "
};
