/* XPM */
static char *_c21c19d0ae24b4adff19689658072cfe6AbKjfpVMgLoE6W[] = {
/* columns rows colors chars-per-pixel */
"32 32 36 1 ",
"  c None",
". c #3D1D1C",
"X c #3D1C1D",
"o c #3C1D1D",
"O c #3D1D1D",
"+ c #4E2222",
"@ c #4E2322",
"# c #4E2223",
"$ c #4E2323",
"% c #4F2323",
"& c #5B2928",
"* c #5B2829",
"= c #5A2929",
"- c #5B2929",
"; c #682E2E",
": c #682F2E",
"> c #682E2F",
", c #692E2F",
"< c #682F2F",
"1 c #692F2F",
"2 c #793636",
"3 c #793736",
"4 c #793637",
"5 c #783737",
"6 c #793737",
"7 c #864242",
"8 c #874242",
"9 c #864342",
"0 c #864243",
"q c #874243",
"w c #864343",
"e c #924848",
"r c #934848",
"t c #934948",
"y c #934849",
"u c #934949",
/* pixels */
"            tyyytyyr            ",
"         tty85553858ytt         ",
"        tt885345455388tt        ",
"      rr5555551111435588tt      ",
"     rr555555>>111<5553380r     ",
"    rr555<111>-<11<<<<55588e    ",
"   tt855<<<<>--*---<<<<55588t   ",
"   t8551<<----*-----<<<<55588   ",
"  t8333<<<&&----=%%==111<<3388  ",
" tt8551<<&&&---*%$%===<1<<5588t ",
" r885<<<1*&&$-$$$$%%=**1<<<558y ",
" r885<<<&&&*$$$$$$%%%*=*<<<5588 ",
"r8855<<<**=%%%$$o%%$$-&*<<<5558y",
"r885<<<-**=%$$$$ooo$$$**&<<<558r",
"8805<<--*-%%$$ooooo$$$&&&,<<145y",
"r855<<----%%$$ooooo$$%%&&1<<<335",
"qq55:11=&&$$%%oooooO$$$=-<<<<555",
"wq55<11=&&$$$oooooOO$%$--<<<5550",
"t8551<<=***$$%ooOOOO%%--=<<<1508",
"r8w55<<=***$$$$X%Oo%%---<<<<558r",
" 885511<*&**$$$$%%$%$*--<<115588",
" 88851<<&*--$-$$$$$$**-<<111588w",
" r8851<<------$$$&&&**11<<1555r ",
"  r85<1<1-------&&&**111<<55wr  ",
"   8w51><<1&&&-*----:>11<555r   ",
"   r8555<<<<1&---><<:>>11558r   ",
"    88853<<<11->:1><<<155588    ",
"     r8855551111<<15555588r     ",
"      rw855551<<<1<55555wr      ",
"        88084355<5555888        ",
"         ttt8855555888r         ",
"            t88885tw            "
};
