/* XPM */
static char *_34ad61e3104491cd8f64690f0bdc80aVcflhKA69Xk6GhBM[] = {
/* columns rows colors chars-per-pixel */
"32 32 2 1 ",
"  c #124E89",
". c #0095E9",
/* pixels */
"................................",
"................................",
"....... ........................",
"...... . .......................",
"....  ...  .....................",
".................... ...........",
"................... . ..........",
".................  ...  ........",
"................................",
"................................",
"................................",
"................................",
"................................",
"................................",
"............. ..................",
"............ . .................",
"..........  ...  ...............",
"................................",
"................................",
"................................",
"................................",
"................................",
"................................",
"..... ..........................",
".... . .........................",
"..  ...  ............... .......",
"....................... . ......",
".....................  ...  ....",
"................................",
"................................",
"................................",
"................................"
};
