/* XPM */
static char *_6892b2eb5344840b7e0507de2f547faBeEo2lUeEJG6tXif[] = {
/* columns rows colors chars-per-pixel */
"32 32 2 1 ",
"  c #124E89",
". c #0095E9",
/* pixels */
"................................",
"................................",
"................................",
"........ .......................",
"....... . ......................",
".....  ...  ....................",
"..................... ..........",
".................... . .........",
"..................  ...  .......",
"................................",
"................................",
"................................",
"................................",
"................................",
"................................",
".............. .................",
"............. . ................",
"...........  ...  ..............",
"................................",
"................................",
"................................",
"................................",
"................................",
"................................",
"...... .........................",
"..... . ........................",
"...  ...  ............... ......",
"........................ . .....",
"......................  ...  ...",
"................................",
"................................",
"................................"
};
