/* XPM */
static char *ab0d6966c4a54f0cfa4fca71668a1188mE7bWBp0wypGBVLk[] = {
/* columns rows colors chars-per-pixel */
"32 32 58 1 ",
"  c None",
". c #2E1E22",
"X c #2E1F22",
"o c #2E1E23",
"O c #586C64",
"+ c #596C64",
"@ c #586D64",
"# c #596D64",
"$ c #4C6470",
"% c #4D6470",
"& c #4D6570",
"* c #4C8190",
"= c #4C8091",
"- c #4C8191",
"; c #4D8191",
": c #6094A4",
"> c #6194A4",
", c #6194A5",
"< c #65ACC0",
"1 c #65ADC0",
"2 c #64ACC1",
"3 c #65ACC1",
"4 c #6CBAD1",
"5 c #6DBAD1",
"6 c #6DBBD1",
"7 c #76C3D6",
"8 c #76C2D7",
"9 c #76C3D7",
"0 c #77C3D7",
"q c #76C8E0",
"w c #76C9E0",
"e c #77C9E0",
"r c #76C9E1",
"t c #86B4B6",
"y c #87B4B6",
"u c #86B5B6",
"i c #87B5B6",
"p c #86B4B7",
"a c #87B4B7",
"s c #AACCCC",
"d c #ABCCCC",
"f c #AACDCC",
"g c #AACCCD",
"h c #80DAF0",
"j c #80DBF0",
"k c #81DBF0",
"l c #80DAF1",
"z c #81DAF1",
"x c #80DBF1",
"c c #C9E0DE",
"v c #C8E0DF",
"b c #C9E0DF",
"n c #C8E1DF",
"m c #C9E1DF",
"M c #E3EEEE",
"N c #E2EFEE",
"B c #E3EFEE",
"V c #E2EFEF",
/* pixels */
"                                ",
"              +++++             ",
"            ++adsdp@@           ",
"          ++pfvvmvvsp++         ",
"         +pfvvmVMMmvmsy+        ",
"        +yfmmmMMVVMvvvdy+       ",
"       +ydbbvvVMVNVvcbbdp@      ",
"      +pdvbbbbbVVNmmvbbvsy+     ",
"      +fdvvvmbbbmmmmmmmmss+     ",
"     +pfddvvmgbbbmmgmmmfdsa@    ",
"     +psa+dvg+gmbbg#gmf#yda+    ",
"     @pp+z+d#z#gbg#x#g#x@ya+    ",
"     +p@ezx#xxx#g+zzx+zx9@p+    ",
"      +=rr0,,0xx+zz0,,9rr;@     ",
"       ;r0&XX&0xxr0$XX&9r-      ",
"       ;r,XXoo,xxz,oooo,r-      ",
"       =e,ooXX,rxx,oooo,e;      ",
"       =e0&oX&ezxxe&oo&0r;      ",
"       ;rx0,,0zzzxx0,,err;      ",
"       -eexxxxzxzxxxxxxer;      ",
"       -6e;xx1xxzzr4xx-e6-      ",
"       ;3e=zx-xxxzz-zx-e3;      ",
"        =6=er-xxzzz-ee-6-       ",
"        -36=-rr9rrrr--63;       ",
"         ;349rrreeee941==-      ",
"         ;116rrrweee6<<213; ;   ",
"          =31366446333<<111=3=  ",
"           ;33331133331311<<3;  ",
"            =;331111111;;;=;*   ",
"              *;=====;=         ",
"                                ",
"                                "
};
