/* XPM */
static char *result[] = {
/* columns rows colors chars-per-pixel */
"32 32 15 1 ",
"  c #323C38",
". c #323C39",
"X c #333C39",
"o c #323D39",
"O c #333D39",
"+ c #FEE760",
"@ c #FEE661",
"# c #FFE661",
"$ c #FEE761",
"% c #FFE761",
"& c #FFFFFE",
"* c #FFFEFF",
"= c #FEFFFF",
"- c white",
"; c None",
/* pixels */
";;;;;;;;;;;;;;;;;;;;;;;;;;;;;;;;",
";;;;;;;;;;;;;;;;;;;;;;;;;;;;;;;;",
";;;;;;;;;;;;;;;;;;;;;;;;;;;;;;;;",
";;;;;;;;;;;;;;;;;;;;;;;;;;;;;;;;",
";;;;;;;;;;;;;;;;;;;;;;;;;;;;;;;;",
";;;;;;;;;;;;;;;;;;;;;;;;;;;;;;;;",
";;;;;;;;;;;;;;;;;;;;;;;;;;;;;;;;",
";;;;;;;;;;;;;;;;;;;;;;;;;;;;;;;;",
";;;;;;;;;;;;;;;;;;;;;;;;;;;;;;;;",
";;;;;;;;;;;;;;;;;;;;;;;;;;;;;;;;",
";;;;;;;;;;;;;;;;;;;;;;;;;;;;;;;;",
";;;;;;;;;;;;;;;;;;;;;;;;;;;;;;;;",
";;;;;;;;;;;;;*-=---;;;;;;;;;;;;;",
";;;;;;;;;;;;-. ..o.-;;;;;;;;;;;;",
";;;;;;;;;;;-.$#$%%$o=;;;;;;;;;;;",
";;;;;;;;;;&.$$Xo..$%o-;;;;;;;;;;",
";;;;;;;;;;-.$@....$$.-;;;;;;;;;;",
";;;;;;;;;;;* $$$$%+.*;;;;;;;;;;;",
";;;;;;;;;;;;-.++$$.-;;;;;;;;;;;;",
";;;;;;;;;;;;;-.$@.-;;;;;;;;;;;;;",
";;;;;;;;;;;;;-.%$..=;;;;;;;;;;;;",
";;;;;;;;;;;;;-.+$$$ -;;;;;;;;;;;",
";;;;;;;;;;;;;-O$$o.*;;;;;;;;;;;;",
";;;;;;;;;;;;;-X$$$$.-;;;;;;;;;;;",
";;;;;;;;;;;;;-.$$..-;;;;;;;;;;;;",
";;;;;;;;;;;;;;- .=-;;;;;;;;;;;;;",
";;;;;;;;;;;;;;;=-;;;;;;;;;;;;;;;",
";;;;;;;;;;;;;;;;;;;;;;;;;;;;;;;;",
";;;;;;;;;;;;;;;;;;;;;;;;;;;;;;;;",
";;;;;;;;;;;;;;;;;;;;;;;;;;;;;;;;",
";;;;;;;;;;;;;;;;;;;;;;;;;;;;;;;;",
";;;;;;;;;;;;;;;;;;;;;;;;;;;;;;;;"
};
