/* XPM */
static char *c6cc7315c43740cf986ca7f94010ac57lEQGF70Nn1D7SUoU[] = {
/* columns rows colors chars-per-pixel */
"32 32 72 1 ",
"  c None",
". c #2E1E22",
"X c #2F1F22",
"o c #343934",
"O c #353934",
"+ c #353935",
"@ c #534721",
"# c #405A36",
"$ c #415A36",
"% c #405B36",
"& c #415B36",
"* c #405A37",
"= c #464646",
"- c #474646",
"; c #464746",
": c #464647",
"> c #5D5D5C",
", c #5D5C5D",
"< c #5D5D5D",
"1 c #5F5F5F",
"2 c #7A6842",
"3 c #7A6942",
"4 c #7A6843",
"5 c #7B6843",
"6 c #7A6943",
"7 c #646464",
"8 c DimGray",
"9 c gray49",
"0 c #964F00",
"q c #987A31",
"w c #987B31",
"e c #997B31",
"r c #62863C",
"t c #63863C",
"y c #62863D",
"u c #90B840",
"i c #90B940",
"p c #91B940",
"a c #CCAD46",
"s c #CCAC47",
"d c #CCAD47",
"f c #CDAD47",
"g c #CA9E72",
"h c #CA9E73",
"j c #CA9F73",
"k c #CB9F73",
"l c #E6D86C",
"z c #E7D86C",
"x c #E6D96C",
"c c #E7D96C",
"v c #E6D86D",
"b c #E6D96D",
"n c #868686",
"m c gray55",
"M c #928B8C",
"N c #DDBC9C",
"B c #DCBD9C",
"V c #DDBD9C",
"C c #EEDAB2",
"Z c #EEDAB3",
"A c #EFDAB3",
"S c #EEDBB3",
"D c #F6F2A6",
"F c #F7F2A6",
"G c gray85",
"H c #D9D9DD",
"J c #FDF0C4",
"K c #FDF1C4",
"L c #FCF0C5",
"P c #FDF0C5",
"I c #FDF1C5",
"U c white",
/* pixels */
"                                ",
"                                ",
"           5455555              ",
"         55jjVNVjj44            ",
"        5jVVAAAAZVVj5           ",
"       4jVZLLLLLZZZVj4          ",
"       4VZPLLLLLLZZZV5          ",
"      4jVVAALLLAZZZZxfw         ",
"      4VZPPPLLLLLLllxxfw        ",
"      4VVZZZLLzzxxlxlxxw        ",
"      4ZPxFxLLLzllfxllxsw       ",
"      4ZPPxFzALzs54sxsxdw       ",
"      4VZZ@@@ZAf5AP5xssdw       ",
"      4ZPZHXGLLwAjL5sssw        ",
"      4VPPMXULLLJjZ4ssw         ",
"      wxFP00LLLLZV4sfw          ",
"      wxlDVSPPPxVVjsw           ",
"      waflDsFFlVVjjq&o          ",
"       wsdsslsq444o#y&oo        ",
"       waDlswwyttttuuu&#o       ",
"        wlswttuuiii#uut#o       ",
"        wfwO&yiiiuyo%rt&o       ",
"         w  oo&yty#>o&&o        ",
"             7m>>>>y&oooo       ",
"             O&&yuuuyiy#o       ",
"            O%&yyyuuiy>>>-      ",
"            ;1ooOOo>>9981-      ",
"             ;;-   -:nn81-      ",
"                     ::--       ",
"                                ",
"                                ",
"                                "
};
