/* XPM */
static char *d2093a3399f947b0928b3a8e3d5c4251FEL578nXbc3XUUlW[] = {
/* columns rows colors chars-per-pixel */
"32 32 78 1 ",
"  c None",
". c #2E1E22",
"X c #2E1F22",
"o c #353834",
"O c #343934",
"+ c #353934",
"@ c #353935",
"# c #524720",
"$ c #534621",
"% c #534721",
"& c #405A36",
"* c #405B36",
"= c #405A37",
"- c #415A37",
"; c #464646",
": c #464746",
"> c #464647",
", c #5D5C5C",
"< c #5D5C5D",
"1 c #5C5D5D",
"2 c #5D5D5D",
"3 c #5F5E5E",
"4 c #5F5E5F",
"5 c #5F5F5F",
"6 c #7A6842",
"7 c #7B6842",
"8 c #7A6942",
"9 c #7A6843",
"0 c #7B6843",
"q c #7A6943",
"w c #646564",
"e c #696968",
"r c DimGray",
"t c #7D7C7D",
"y c gray49",
"u c #964F00",
"i c #987B30",
"p c #987A31",
"a c #987B31",
"s c #997B31",
"d c #62863C",
"f c #63863C",
"g c #62873C",
"h c #62863D",
"j c #90B940",
"k c #91B940",
"l c #90B941",
"z c #CCAD46",
"x c #CCAC47",
"c c #CCAD47",
"v c #CDAD47",
"b c #CA9E73",
"n c #CA9F73",
"m c #E6D86C",
"M c #E7D86C",
"N c #E6D96C",
"B c #E6D86D",
"V c #E6D96D",
"C c #868686",
"Z c gray55",
"A c #928A8C",
"S c #DDBC9C",
"D c #DCBD9C",
"F c #DDBD9C",
"G c #DDBD9D",
"H c #EEDAB2",
"J c #EFDAB2",
"K c #EEDAB3",
"L c #EFDAB3",
"P c #F7F2A6",
"I c #F7F3A6",
"U c gray85",
"Y c #D9D9DD",
"T c #FDF0C4",
"R c #FCF0C5",
"E c #FDF0C5",
"W c #FDF1C5",
"Q c white",
/* pixels */
"                                ",
"                                ",
"                                ",
"               6999666          ",
"             96bnGGGnn76        ",
"            9bDDKKKKKGFb9       ",
"           6bGKKKEEEEEKFb9      ",
"           6GKKKEEEEEEEKG9      ",
"          pcmHHKKKEEEKKFGb9     ",
"         pcNMMmREEEEETETKG6     ",
"         pNNMMBBmmmEEKKKFF6     ",
"        pcBBMMcNmmEEEmINEK6     ",
"        acNcNx66cmEKNINEEK9     ",
"        acccB0EK6cKK$$$KKG6     ",
"         accc6EbKpEEU.YKEK9     ",
"          acc0KbEEEEQXAEEG9     ",
"           azz0FKEEEEuuTPBp     ",
"            pzbSGNEEEKGPmmp     ",
"           +&pbbFGmIPcPNcci     ",
"         +O&d&o066pcBccccp      ",
"        +=&lljggdddpacNPca      ",
"        +&dll&jjjjjddacNa       ",
"        +&dd&+djjjjd&+aca       ",
"         +&&+2&gdd&++  a        ",
"        ooo+&g2222Zw            ",
"        o&gkgkjjd-&+            ",
"       >22,gkjjgdd&&+           ",
"       :3eyy2,Oo+++5>           ",
"       >5eCC>>   >>>            ",
"        >>>>                    ",
"                                ",
"                                "
};
