/* XPM */
static char *_ad58d6cbf0a4037b42e6d7cc7795e548MaLXf79c8UQFQWC[] = {
/* columns rows colors chars-per-pixel */
"32 32 36 1 ",
"  c None",
". c #3D1D1C",
"X c #3D1D1D",
"o c #4E2322",
"O c #4E2323",
"+ c #4F2323",
"@ c #5A2928",
"# c #5B2928",
"$ c #5B2829",
"% c #5A2929",
"& c #5B2929",
"* c #682F2E",
"= c #692F2E",
"- c #682E2F",
"; c #682F2F",
": c #692F2F",
"> c #783636",
", c #793636",
"< c #783736",
"1 c #793736",
"2 c #783637",
"3 c #793637",
"4 c #783737",
"5 c #793737",
"6 c #864242",
"7 c #874242",
"8 c #864342",
"9 c #874342",
"0 c #864243",
"q c #924848",
"w c #934848",
"e c #934948",
"r c #924849",
"t c #934849",
"y c #924949",
"u c #934949",
/* pixels */
"          t  tttw               ",
"            ww66wwt    w        ",
"      ww   wt67666www  ww       ",
"     w6   tt66115666uw  0t      ",
"     w   tw604:451666ww  6t     ",
"    w6  tt664;;;511166ww  t  t  ",
"    6  wt6654-:;-;4<566wt 6     ",
"    6 ww7944:::%:;:;5566t  t    ",
"      w6644:-:%%&%;;:566ww      ",
"  w   w6644:-&&&#$%:;556ww      ",
"  w   w664::%%%Oo&%::<569w      ",
"      6044;:%%OXOo%;;1566w  w   ",
"   w w6644:%&+O.XO&-;;559w  w   ",
"  w6 w695::%%+..XO&%;;149ww w   ",
"  w  6645::%++..O+o&;;4496w     ",
"  6 w6945::%++..XoO%::4460w     ",
" t  w6655;-%%O..XOO&-:4476w     ",
"     6655::%%O..XO&&:44466t     ",
"     t6555:%%O++XO&&:45569t     ",
"  t  w7551:-%%++Oo&&-5556tw  w  ",
"  9t t6655;;&@&+O&%-:4566ww     ",
"     t6665;;&%&&&&%;44669w      ",
"      r6655;;@%%&&:;4976ww  w   ",
"      wr6615;::%--:;476tw  w    ",
"   t   t69<5;;;;:-5140ww   w    ",
"    t  ww65555;:455798w   w6    ",
"    t  tw665<5<5445600w   6     ",
"    w   w69664554666ttw  w6     ",
"    9    t6665115666w    w      ",
"    6w   t996656766tw           ",
"     9w   wt6679wt              ",
"            ttwt    w           "
};
