/* XPM */
static char *_647372803140[] = {
/* columns rows colors chars-per-pixel */
"32 32 218 2 ",
"   c #143D13",
".  c #2C350C",
"X  c #2E3B0F",
"o  c #333617",
"O  c #0C3A2B",
"+  c #0A3E27",
"@  c #1D342B",
"#  c #163D2A",
"$  c #1C3B28",
"%  c #082F34",
"&  c #0E3C30",
"*  c #0D3B39",
"=  c #123C34",
"-  c #1C3C34",
";  c #153D3B",
":  c #1B3D3B",
">  c #193536",
",  c #322B21",
"<  c #25362D",
"1  c #333125",
"2  c #253C36",
"3  c #0D4E0E",
"4  c #0C5605",
"5  c #12540D",
"6  c #16590E",
"7  c #0A4915",
"8  c #124D17",
"9  c #144E1B",
"0  c #1B4C15",
"q  c #105415",
"w  c #195314",
"e  c #135B13",
"r  c #19551C",
"t  c #114E10",
"y  c #26420F",
"u  c #22581E",
"i  c #22491D",
"p  c #036400",
"a  c #0A6700",
"s  c #106102",
"d  c #187607",
"f  c #186014",
"g  c #237A17",
"h  c #0D4725",
"j  c #1A4126",
"k  c #154D24",
"l  c #12442C",
"z  c #1B412C",
"x  c #154B2D",
"c  c #1D482B",
"v  c #184823",
"b  c #0D5025",
"n  c #165524",
"m  c #1B5524",
"M  c #1C5229",
"N  c #1B5C2B",
"B  c #0F4136",
"V  c #144434",
"C  c #134932",
"Z  c #1E4935",
"A  c #15413C",
"S  c #1C423A",
"D  c #1C5B33",
"F  c #1F573A",
"G  c #1D5A3D",
"H  c #1A5535",
"J  c #234928",
"K  c #32432C",
"L  c #215C2C",
"P  c #27572F",
"I  c #2C4A33",
"U  c #24433B",
"Y  c #264638",
"T  c #235D33",
"R  c #295D36",
"E  c #23563C",
"W  c #245C3C",
"Q  c #2A5C3C",
"!  c #1D632D",
"~  c #1C692B",
"^  c #176426",
"/  c #1E6134",
"(  c #24662B",
")  c #236234",
"_  c #286537",
"`  c #236A35",
"'  c #296936",
"]  c #25633B",
"[  c #2A623A",
"{  c #2B6C3C",
"}  c #27693D",
"|  c #30653B",
" . c #3C7E3E",
".. c #65453A",
"X. c #70453E",
"o. c #1A4342",
"O. c #1B444A",
"+. c #1E5A40",
"@. c #204941",
"#. c #255542",
"$. c #245C43",
"%. c #2B5D43",
"&. c #25564B",
"*. c #2C554C",
"=. c #2B5C4A",
"-. c #2B5644",
";. c #33544B",
":. c #33594B",
">. c #2D5555",
",. c #2D5A53",
"<. c #265752",
"1. c #315A56",
"2. c #266243",
"3. c #2A6243",
"4. c #296248",
"5. c #3C7F4B",
"6. c #3B7A44",
"7. c #316455",
"8. c #3A7A55",
"9. c #5E4B47",
"0. c #724E42",
"q. c #694642",
"w. c #457F4A",
"e. c #427D54",
"r. c #4A7F55",
"t. c #437D5B",
"y. c #45775A",
"u. c #4A7D63",
"i. c #98725B",
"p. c #937966",
"a. c #A57764",
"s. c #5DB43F",
"d. c #5AC83E",
"f. c #3C834C",
"g. c #3C8A4B",
"h. c #3C8444",
"j. c #3F8654",
"k. c #42844D",
"l. c #438A4D",
"z. c #4B884C",
"x. c #5B974B",
"c. c #448453",
"v. c #4A8454",
"b. c #428A51",
"n. c #4A8A56",
"m. c #45845B",
"M. c #4A835B",
"N. c #468A5B",
"B. c #4C8D5C",
"V. c #50885B",
"C. c #479157",
"Z. c #5D8C48",
"A. c #628E4F",
"S. c #6D8E5C",
"D. c #718F5D",
"F. c #679257",
"G. c #5BBD46",
"H. c #5EBE4B",
"J. c #5DA050",
"K. c #61BF4B",
"L. c #6ABE4F",
"P. c #65BC53",
"I. c #6ABE54",
"U. c #6BB65D",
"Y. c #65BD5B",
"T. c #6BBD5C",
"R. c #67B65D",
"E. c #72BF5D",
"W. c #76B65F",
"Q. c #66A94C",
"!. c #4A8462",
"~. c #498767",
"^. c #708961",
"/. c #7BAF6D",
"(. c #6CBB63",
"). c #6CBB6A",
"_. c #6DB56B",
"`. c #77B266",
"'. c #73BD64",
"]. c #72BB6C",
"[. c #77B76D",
"{. c #77AC78",
"}. c #6EBA72",
"|. c #74B677",
" X c #75BD73",
".X c #7ABC7C",
"XX c #79B579",
"oX c #5DC345",
"OX c #5EC944",
"+X c #5EC34C",
"@X c #5FC94B",
"#X c #5FC352",
"$X c #64C444",
"%X c #63CB45",
"&X c #63C44C",
"*X c #69C54D",
"=X c #64CA4B",
"-X c #6ACB4C",
";X c #69CA45",
":X c #65C454",
">X c #6AC454",
",X c #65C954",
"<X c #6CCC54",
"1X c #64C459",
"2X c #6BC45B",
"3X c #67CA5A",
"4X c #6ACA5A",
"5X c #73C55E",
"6X c #6DD05C",
"7X c #66D147",
"8X c #65C361",
"9X c #6DC263",
"0X c #6DC668",
"qX c #72C264",
"wX c #74C176",
"eX c #958168",
"rX c #83B876",
"tX c #82B28A",
/* pixels */
"=X@X&X%X=X@X,X1X2X>X>XT.[.{.M x x m {.`.5X&XL.>X2X*X=XOX%X$X@X#X",
",X&X&X%X@XoX#X4Xd T.'.'.6 r e.e.M.w.u 5 U.T.2XY.:X<XOXd.-X=X+X,X",
"8X#X&XOXd.OX,XY.)._.5 t w.z.v.c.v.v. .z.5 4 ].].2XoX%X%X-X>X#X,X",
"(.0Xd d %X;X>XR.e 9 k.n.v.R w.v.v.L z.P v.v.w q (.:X=X%X$X>X4X1X",
"1Xa H.4Xs.>XqX6 l.f.b.b.T T V.) k.T 2.W M.w.c.f.e (.*X;X&X+X2XP.",
"3X#X3XP.5XqX4 h.h.~.T ) { T [ T k.B.W E Q M.c.j.h.6 I.>X+X4Xp 5X",
":X+X1X4XR.6 h.k.c.T Q e.c.} 8.M.t.D j.N.T ] / c.n. .6 U.2X:X:XH.",
"$X<X+X3X].q k.b.c.) [ r.j.! j.m.3.D b.g./ !.D ` k.l.9 |.qXK.-X&X",
"$X&X,XY.q c.b./ ' L M.M.f.^ ) !.2./ ~ g.` f.b.) T ) r.9 ].:X=XOX",
"$X%X&X9Xn M.e.c.5.( ) n g.C./ G j.` g.f ! k.k.l.] M.%.n (.g &X=X",
"%XoX*X(.n y.M.v.b.! ( C.h.g.D m.N.f.g.k.L c.k.k.T t.#.b ).:X>X*X",
"%X=X2X).k W [ M.c.f.j.f.b.f._ c.j.g.z.k.B.c.k.k.M.[ 2.b wXY.L.2X",
">X>X(.e k.M._ L L c.} m.m./ k.5.j.! c.` f.D M._ ) D D N.q _.g *X",
"Y.T.wX7 k.N.L [ M.) N m.G D { c.v.) D N b.b.e.R M.e.c.T 9 |.p *X",
">X2X|.M ) W Q E M.8.C.g.] %.T T e.[ u.2./ g.) Q %.R Q T 9 .XqXK.",
"2XU.r R T Q %.%.M.N ~ l.D 2.M.M.[ 2.#.E / g.] r.u.%.R R _ 8 '.>X",
"[. X9 P ] 2.F u.e.' k.N N.~ f.~.W 2.W m.] D 2.] !.%.W 3.] 8 [.W.",
"XX9 L { 2.G 4.Q M.T k.n.! 3./ 8.2.H m.] t.~.$.+.+.H 3.W W | r /.",
"{.J Q %.E #.=.=.-.] M.T !.8./ ~.~.H j.c.) 8.4.$.4.W 2.W E R v tX",
"c Z l -.=.,.&.$.-.W [ W $.3.+.G G ] _ T 3.$.$.%.F 3.x E :.Z E Y ",
"Y j z =.-.$.$.+.4.$.G 4.4.F 3.%.T [ R R E $.%.Q 3.%.O >.1.; : @.",
"Y = :.-.#.4.C 4.+.2.+.2.E 3.-.W R Q Q Q 3.#.=.=.l #.U > : > U 2 ",
"Y ;.;.U -.;.B <.V $.2.l W %.Q -.= 7.E 3.h Q V & >.1.>.: ;.U ;.2 ",
"J $ $ S *.A *.B B +.4.C #.l E =.<.A &.$.l $.&.,.; >.>.; ;.# j Y ",
"{.9 9 #.A >.* * <.<.C O =.,.= >.>.O.>.A &.V ,.&.; A >.*.x 7 9 |.",
" X.X7 k + & o.o.o.O O 7.&.= o.>.O.% O.; >.A O S - = z l 7 n ).).",
"#X8X).5 r i z z U : : : ; A A V A o.; : S U 2 @ @ I J 0 5 ].9X8X",
"4X1XY.E.W.rX3 J # $ - 2 2 @ < < @ 2 @ 2 @ # $ I J   rXrXE.P.8X#X",
"K.*X*X$X*X*XE.].XXP J 2 , q.0...X.q.9.1 K i w _.}.}.g P.>X*X:X*X",
"<XK.;X$X;X-XL.Y.(.( rX^.o eXi.a.a.i.p., S.`.qX2X8X8Xp #X,X-XoX=X",
"$X=X*X,Xd G.:X1Xp 9X(.x.A.y . . . X y Z.Q.>X@X@X#X#X3X&X%X$X&X$X",
"&X=X:X&X:X3X3X:X@X3X:X4 J.x.S.S.D.F.x.x.P.OX7XOX@X#X&X&X$X;X=X&X"
};
