/* XPM */
static char *_647372783057[] = {
/* columns rows colors chars-per-pixel */
"32 32 165 2 ",
"   c #106D02",
".  c #126E03",
"X  c #147409",
"o  c #13720E",
"O  c #187608",
"+  c #2B8C1B",
"@  c #2F8B20",
"#  c #2F8F24",
"$  c #2E8D27",
"%  c #308E20",
"&  c #389626",
"*  c #329129",
"=  c #35942E",
"-  c #3A982A",
";  c #3F9C31",
":  c #409C31",
">  c #40A035",
",  c #54B93F",
"<  c #5CBF48",
"1  c #5DBE4B",
"2  c #5FBE4A",
"3  c #5BBB4F",
"4  c #5FBB4E",
"5  c #5FBD4D",
"6  c #5EBF4E",
"7  c #5CBB53",
"8  c #5FBF53",
"9  c #60BE4E",
"0  c #61BF4F",
"q  c #62BE53",
"w  c #63BF54",
"e  c #5BC046",
"r  c #5FC546",
"t  c #5FC148",
"y  c #5FC349",
"u  c #5FC548",
"i  c #5FC44A",
"p  c #5DC04C",
"a  c #5FC04C",
"s  c #60C345",
"d  c #60C247",
"f  c #62C547",
"g  c #60C647",
"h  c #62C747",
"j  c #61C348",
"k  c #61C549",
"l  c #62C648",
"z  c #63C749",
"x  c #60C44A",
"c  c #61C54B",
"v  c #61C74A",
"b  c #62C64A",
"n  c #63C74B",
"m  c #64C64B",
"M  c #61C24E",
"N  c #60C34E",
"B  c #61C24F",
"V  c #60C34F",
"C  c #64C34F",
"Z  c #61C44D",
"A  c #60C54D",
"S  c #62C44D",
"D  c #62C64C",
"F  c #62C74D",
"G  c #63C74D",
"H  c #61C44F",
"J  c #63C54E",
"K  c #61C64E",
"L  c #63C64F",
"P  c #62C74F",
"I  c #64C64D",
"U  c #65C44E",
"Y  c #64C64F",
"T  c #62C848",
"R  c #63C848",
"E  c #62C849",
"W  c #63C949",
"Q  c #63C94A",
"!  c #62C84B",
"~  c #64C949",
"^  c #65C94B",
"/  c #66CB4B",
"(  c #63C94C",
")  c #64C84C",
"_  c #65C94D",
"`  c #66C84D",
"'  c #67CA4C",
"]  c #64C84E",
"[  c #66C84F",
"{  c #66CA4E",
"}  c #61C352",
"|  c #62C352",
" . c #64C252",
".. c #65C353",
"X. c #61C450",
"o. c #63C450",
"O. c #62C551",
"+. c #63C651",
"@. c #62C751",
"#. c #63C652",
"$. c #65C450",
"%. c #64C551",
"&. c #64C750",
"*. c #64C552",
"=. c #66C452",
"-. c #67C553",
";. c #65C652",
":. c #64C752",
">. c #60C055",
",. c #63C055",
"<. c #62C254",
"1. c #63C355",
"2. c #64C254",
"3. c #65C355",
"4. c #65C057",
"5. c #64C554",
"6. c #66C454",
"7. c #66C754",
"8. c #66C456",
"9. c #67C557",
"0. c #68C753",
"q. c #69C755",
"w. c #69C757",
"e. c #67C950",
"r. c #65CA50",
"t. c #66CB51",
"y. c #65C853",
"u. c #66CB53",
"i. c #67CC52",
"p. c #67C854",
"a. c #66C954",
"s. c #67C855",
"d. c #67CA55",
"f. c #67C857",
"g. c #68CA51",
"h. c #68CA53",
"j. c #68CC52",
"k. c #68CD53",
"l. c #69CD53",
"z. c #68C955",
"x. c #68C956",
"c. c #6BC957",
"v. c #69CA56",
"b. c #63C25A",
"n. c #64C458",
"m. c #66C658",
"M. c #67C759",
"N. c #66C55D",
"B. c #69C558",
"V. c #68C658",
"C. c #68C55B",
"Z. c #6AC65B",
"A. c #6BC75C",
"S. c #68C75F",
"D. c #6CC75E",
"F. c #68C958",
"G. c #6BC959",
"H. c #69CA59",
"J. c #6ACB58",
"K. c #69C95B",
"L. c #69CB5A",
"P. c #6CCA5A",
"I. c #6BCC58",
"U. c #69C95D",
"Y. c #6BCB5F",
/* pixels */
"m m G +.+.+.G G ( G i ( i ( @.@.( G +.G G G G +.( i i @.( G +.+.",
"m I +.G +.+.o.G ( i ( ( +.( @.@.+.+.G +.G G i ( ( @.G G ( G +.G ",
"G G G +.o.G +.G G ( b ( i ( K @.+.G G G G G G G G G G G G G G G ",
"G G +.G G +.G G G E ( E ( ( ( i G G G G G G G G G G G G G G G G ",
"G G G G +.+.G G G G b I ( E E E b b I E I ( G G G G G G G G G G ",
"G G G G G o.G G G G G b b G ( m b G E I G G G ( G G G G G G G G ",
"G +.G G G G G G G +.+.G ( b R R m h ~ E G G *.I +.G +.G G G b b ",
"o.G G G G G G G +.G +.G G G m R E m b I G G I *.I *.G G G [ b G ",
"G o.G G E I ( G s.+.a s.*.b R m ~ E b b I b B *.q.B o.B j.b b b ",
"+.G G G I E G +.1 L.} +.I I s ~ h E ( E z.0.z.q.1 G.B q.e j.i.u ",
"+.G G b E m I *.F.<.<.<.I.G m m ~ ~ [ b I 9 -.9 & *.z.o.+.( < G ",
"G I b m m E I *.+.n.Y.>.+ z.d ' h b [ b *.*.Z.6.- 1 6.*.y.@.i.( ",
"+.G b ~ b m I *.F.# 7 > 1.G.I d h u [ b *.w.9 B.. 1.# F.y.y.u < ",
"G G m R R h I *.U.b.= * w B 0.d ~ ~ [ G o.o.: q A.q ; 1 B +.G i.",
"+.G G b R m I *.7 S.o $ N.P.*.g.b E ( +.q.V.@ D.6.A.  F.+.s.i i ",
"G G b m ~ b I *.F.>.N.X o.V.9 [ b E G G *.w O 6.6.V.<.F.} } u.@.",
"G G G G b G G +.+.+.+.+.+.G *.G G G G G +.G +.o.*.*.*.G +.G G G ",
"G G G G I G G G G G G G G G G G G G G G G G G G G I G G G G G G ",
"G G G G G G G G G G G G G G G G G G G G G G G G G G G G G G G G ",
"G G G G G G G G G G G G G G G G G G G G G G G G G G G G G G G G ",
"G G G G G G G G G G G G G G G G G G G G G G G G G G G G G G G G ",
"G G G G G G G G G G G G G G G G G G G G G G G G G G G G G G G G ",
"G G G G G G G G G G G G G G G G G G G G G G G G G G G G G G G G ",
"G G G G G G G G G G G G G G G G G G G G G G G G G G G G G G G G ",
"G G G G G G G G G G G G G G G G G G G G G G G G G G G G G G G G ",
"G G G G G G G G G G G G G G G G G G G G G G G G G G G G G G G G ",
"G G G G G G G G G G G G G G G G G G G G G G G G G G G G G G G G ",
"G G G G G G G G G G G G G G G G G G G G G G G G G G G G G G G G ",
"G G G G G G G G G G G G G G G G G G G G G G G G G G G G G G G G ",
"G G G G G G G G G G G G G G G G G G G G G G G G G G G G G G G G ",
"G G G G G G G G G G G G G G G G G G G G G G G G G G G G G G G G ",
"G G G G G G G G G G G G G G G G G G G G G G G G G G G G G G G G "
};
